<svg data-v-4e93c639="" data-v-fd6234b3="" width="78" height="33" viewBox="0 0 78 33" fill="none" xmlns="http://www.w3.org/2000/svg" class="-mb-1.5"><path fill-rule="evenodd" clip-rule="evenodd" d="M0 0H8.26393V5.71333H11.0186V2.85667H13.7732V0H22.0371V8.57H19.2825V11.4267H16.5279V14.2833H19.2825V17.14H22.0371V25.71H13.7732V22.8533H11.0186V19.9967H8.26393V25.71H0V0ZM55.0929 0H63.3568V5.71333H66.1114V2.85667H68.8661V0H77.13V8.57H74.3754V11.4267H71.6207V14.2833H74.3754V17.14H77.13V25.71H68.8661V22.8533H66.1114V19.9967H63.3568V25.71H55.0929V0ZM24.7918 0H33.0557V25.71H24.7918V0ZM44.0743 0H38.565V2.85667H35.8104V22.8533H38.565V25.71H44.0743H52.3382V17.14H44.0743V8.57H52.3382V0H44.0743Z" fill="white" data-v-4e93c639=""></path><path d="M55 27H58.4432C59.0057 27 59.4201 27.1275 59.6838 27.3825C59.9475 27.6375 60.0806 28.025 60.0806 28.545C60.0806 28.8875 60.0053 29.1675 59.8571 29.38C59.7089 29.595 59.5231 29.745 59.3071 29.83C59.7717 29.955 60.0881 30.265 60.2539 30.755C60.3116 30.9325 60.3393 31.1375 60.3393 31.3725C60.3393 31.9325 60.2062 32.345 59.9425 32.6075C59.6788 32.87 59.2644 33.0025 58.7018 33.0025H55V27ZM58.5311 28.715C58.5311 28.3725 58.3578 28.2 58.0137 28.2H56.5495V29.4H58.0137C58.3578 29.4 58.5311 29.2275 58.5311 28.885V28.7125V28.715ZM58.7897 31.115C58.7897 30.7725 58.6164 30.6 58.2724 30.6H56.5495V31.8H58.2724C58.6164 31.8 58.7897 31.6275 58.7897 31.285V31.1125V31.115Z" fill="white" data-v-4e93c639=""></path><path d="M65.8925 33H61.1133V27H65.8925V28.2H62.6628V29.3575H65.2019V30.5575H62.6628V31.8H65.8925V33Z" fill="white" data-v-4e93c639=""></path><path d="M69.5101 33H67.9606V28.2H66.1523V27H71.3183V28.2H69.5101V33Z" fill="white" data-v-4e93c639=""></path><path d="M72.395 33H70.7148L72.9977 27H74.7206L77.0034 33H75.3233L74.9365 31.9275H72.7842L72.3975 33H72.395ZM73.171 30.815H74.5498L73.8616 28.8L73.1735 30.815H73.171Z" fill="white" data-v-4e93c639=""></path></svg>